<svg xmlns="http://www.w3.org/2000/svg" viewBox="0 0 680 430"><defs><radialGradient id="g" cx="70%" cy="35%" r="70%"><stop offset="0" stop-color="#1fffd5" stop-opacity=".36"/><stop offset="1" stop-color="#020508"/></radialGradient><filter id="b"><feGaussianBlur stdDeviation="3"/></filter></defs><rect width="680" height="430" rx="34" fill="#061013"/><rect x="24" y="24" width="632" height="382" rx="28" fill="url(#g)" stroke="#128b82"/><g stroke="#65ffe8" opacity=".26" fill="none"><path d="M60 24V406"/><path d="M120 24V406"/><path d="M180 24V406"/><path d="M240 24V406"/><path d="M300 24V406"/><path d="M360 24V406"/><path d="M420 24V406"/><path d="M480 24V406"/><path d="M540 24V406"/><path d="M600 24V406"/><path d="M24 60H656"/><path d="M24 120H656"/><path d="M24 180H656"/><path d="M24 240H656"/><path d="M24 300H656"/><path d="M24 360H656"/></g><g fill="none" stroke="#7fffe7" opacity=".64"><ellipse cx="410" cy="214" rx="178" ry="74" transform="rotate(-20 410 214)"/><ellipse cx="410" cy="214" rx="250" ry="110" transform="rotate(-20 410 214)" opacity=".35"/><path d="M105 300c100-83 181 25 276-82 67-74 147-44 212 12"/></g><circle cx="410" cy="214" r="58" fill="#0b171c" stroke="#7fffe7" opacity=".88"/><text x="60" y="78" fill="#9ffff1" font-family="Arial" font-size="16" letter-spacing="5">PROJECT</text><text x="60" y="356" fill="#f7fbff" font-family="Arial" font-weight="700" font-size="54">DATA</text></svg>